<?xml version="1.0" standalone="no"?>
<!DOCTYPE svg PUBLIC "-//W3C//DTD SVG 20010904//EN"
 "http://www.w3.org/TR/2001/REC-SVG-20010904/DTD/svg10.dtd">
<svg version="1.0" xmlns="http://www.w3.org/2000/svg"
 width="1080.000000pt" height="1080.000000pt" viewBox="0 0 1080.000000 1080.000000"
 preserveAspectRatio="xMidYMid meet">

<g transform="translate(0.000000,1080.000000) scale(0.100000,-0.100000)"
fill="#000000" stroke="none">
<path d="M4755 10381 l-360 -6 -3 -567 c-1 -313 -5 -568 -7 -568 -3 0 -25 10
-48 22 -24 12 -88 28 -150 37 l-108 16 -59 179 c-32 98 -62 181 -65 185 -5 4
1 -261 9 -357 1 -11 -24 -19 -106 -33 -157 -27 -219 -65 -234 -145 -3 -19 -11
-33 -18 -31 -6 2 -49 94 -96 205 -47 111 -89 202 -93 202 -5 0 -6 -3 -3 -8 9
-16 88 -364 83 -369 -5 -4 -236 31 -278 43 -9 3 -79 113 -155 246 -76 133
-140 236 -142 230 -2 -6 19 -83 47 -169 95 -299 91 -283 72 -283 -29 -1 -97
-37 -125 -66 -14 -16 -36 -48 -47 -71 l-21 -43 -291 -1 c-161 0 -300 -4 -311
-8 -12 -5 26 -16 115 -34 74 -15 206 -42 293 -60 l160 -32 8 -35 c23 -98 32
-117 75 -157 l44 -41 -78 -86 c-74 -81 -80 -85 -113 -80 -19 3 -271 64 -558
136 -288 71 -526 127 -528 125 -3 -2 233 -93 523 -202 290 -108 535 -201 544
-206 12 -6 18 -28 21 -76 5 -60 16 -102 43 -165 7 -17 -18 -18 -436 -19 -244
0 -452 -4 -462 -8 -12 -4 23 -13 95 -25 62 -9 196 -31 298 -47 102 -16 244
-38 315 -50 72 -11 151 -25 178 -30 47 -11 47 -11 47 -52 0 -164 177 -205 351
-82 61 43 132 85 144 85 3 0 5 -30 5 -67 l0 -68 -133 -60 -132 -60 -755 -5
-755 -5 0 -1005 0 -1005 1087 -3 1088 -2 -6 -58 c-5 -49 -3 -62 18 -92 13 -19
43 -49 68 -67 130 -94 127 -88 138 -325 8 -163 11 -188 33 -233 19 -39 30 -51
51 -53 36 -4 52 26 44 87 -22 170 -18 321 8 357 13 17 15 16 33 -14 11 -17 30
-76 43 -129 13 -54 36 -148 52 -209 42 -166 38 -217 -42 -476 -48 -158 -51
-211 -10 -216 56 -6 154 96 185 194 9 30 20 113 25 194 5 83 13 147 20 153 8
9 11 -506 10 -2123 -1 -1174 -1 -2145 -1 -2157 l1 -23 1010 0 1010 0 0 451 c0
500 -1 492 60 363 17 -36 36 -64 45 -64 25 0 48 58 41 103 -9 53 -26 84 -91
161 l-55 65 0 673 1 673 44 27 c60 37 73 80 51 169 -9 35 -29 81 -44 103 -68
96 -62 -25 -60 1273 2 644 6 1174 9 1177 3 4 80 5 170 4 l164 -3 -72 -23 c-39
-12 -82 -31 -95 -42 l-23 -20 24 -19 c40 -31 161 -55 249 -48 92 6 140 26 249
101 75 51 103 65 103 51 0 -3 -25 -63 -55 -133 -72 -167 -73 -197 -6 -163 98
50 214 153 263 233 49 79 45 78 453 78 305 0 356 -2 361 -15 8 -19 -125 -289
-149 -305 -10 -6 -57 -15 -104 -21 -93 -10 -130 -23 -147 -52 -11 -19 5 -39
62 -77 l23 -15 -50 -95 c-54 -101 -60 -127 -35 -137 24 -9 66 15 204 115 167
123 227 177 306 278 72 92 101 156 114 248 5 32 12 61 15 65 4 3 86 6 183 6
l177 0 -3 -86 c-4 -80 -2 -87 22 -116 46 -54 124 -66 169 -26 14 13 17 32 16
103 -3 128 -1 130 125 130 l103 0 6 353 c9 451 9 1122 0 1440 l-6 249 -511 -3
-511 -3 -137 36 c-76 21 -156 47 -180 59 -56 29 -152 121 -179 173 -46 89
-190 245 -244 266 -15 6 -46 10 -71 10 l-44 0 0 51 c0 44 -7 63 -56 142 -115
189 -128 197 -304 197 -230 0 -372 25 -522 92 l-68 31 0 843 0 844 -252 0
c-139 0 -431 2 -648 3 -217 2 -557 1 -755 -2z m-718 -1208 c13 -3 39 4 60 17
31 18 47 21 89 16 89 -10 160 -51 189 -107 15 -29 15 -29 -13 -29 -15 0 -32 4
-37 9 -33 33 -279 56 -326 31 -53 -29 -63 -120 -21 -201 37 -71 121 -134 322
-240 88 -46 170 -91 181 -100 l22 -16 -23 -42 c-13 -22 -30 -41 -38 -41 -23 0
-209 98 -286 149 -39 27 -116 83 -171 125 -96 72 -100 74 -110 53 -13 -31 -24
-37 -70 -37 -73 0 -77 4 -120 113 -22 56 -41 105 -43 110 -2 4 20 7 50 7 60 0
101 17 106 43 2 10 -12 33 -32 53 -20 20 -36 42 -36 50 0 23 42 42 130 57 75
12 89 12 120 -1 19 -8 45 -17 57 -19z m-802 -88 c147 -22 283 -50 293 -60 6
-5 52 -200 52 -217 0 -16 -10 -18 -79 -18 -75 0 -79 -1 -74 -21 9 -33 110
-136 162 -166 39 -21 50 -35 64 -73 29 -80 94 -106 146 -56 21 21 26 33 23 60
l-4 34 39 -9 c21 -4 85 -15 143 -24 67 -10 159 -34 255 -67 83 -28 151 -52
153 -53 1 -1 -2 -15 -8 -31 -10 -25 -8 -31 10 -46 12 -10 39 -18 59 -18 45 0
79 32 109 103 12 26 27 47 35 47 23 0 87 -48 135 -101 52 -58 98 -84 240 -133
294 -102 677 -155 802 -111 23 8 91 51 150 94 167 123 167 123 360 133 91 5
180 7 198 4 19 -3 75 -29 125 -59 183 -109 191 -107 65 11 -67 63 -74 72 -55
76 12 3 90 14 172 26 83 11 155 21 160 22 6 1 -134 5 -310 8 l-320 5 -80 34
c-67 28 -92 34 -155 33 -65 0 -97 -7 -240 -57 -195 -67 -262 -98 -351 -165
l-66 -50 -62 23 c-33 12 -60 27 -58 32 10 30 264 194 358 230 112 45 389 115
449 115 67 -1 244 -44 400 -99 129 -45 229 -60 438 -65 124 -3 135 -5 158 -27
36 -33 124 -179 124 -204 0 -16 -25 -36 -103 -83 -56 -34 -105 -62 -109 -62
-3 0 -1 16 5 35 13 43 7 50 -45 50 -48 0 -73 -26 -91 -93 -7 -27 -21 -51 -35
-60 -22 -14 -31 -13 -110 12 -48 16 -115 41 -148 56 -147 66 -296 80 -444 41
-103 -27 -117 -38 -104 -83 8 -27 27 -45 104 -95 52 -35 88 -63 81 -63 -8 0
-76 21 -150 46 -152 52 -171 54 -326 36 -111 -13 -205 -7 -270 18 -40 15 -154
40 -184 40 -33 0 -51 -16 -51 -48 0 -14 44 -88 108 -181 60 -86 113 -163 117
-171 24 -41 -40 30 -179 199 -186 226 -185 225 -218 246 -21 13 -31 14 -47 5
-22 -11 -24 -21 -21 -78 3 -60 -86 -117 -224 -143 -56 -10 -61 -7 -71 53 l-7
37 -69 -34 c-62 -32 -69 -38 -69 -64 0 -37 -17 -43 -124 -43 -141 1 -333 48
-484 118 -53 25 -120 52 -148 59 -109 28 -173 81 -240 196 -17 30 -53 92 -80
138 -70 120 -129 181 -241 247 -188 110 -318 200 -331 228 -16 36 -15 100 3
170 24 92 56 133 105 135 8 1 92 -10 185 -24z m997 -71 c48 -18 102 -36 122
-39 l35 -7 3 -105 c2 -58 0 -110 -4 -116 -7 -11 -119 49 -200 108 -70 51 -128
129 -128 172 l0 35 43 -7 c23 -4 81 -22 129 -41z m1408 -191 c103 -34 244
-112 229 -127 -3 -4 -41 1 -85 9 -103 20 -162 19 -319 -4 -106 -15 -153 -28
-258 -70 -167 -67 -211 -90 -291 -151 -36 -27 -68 -50 -71 -50 -8 0 -160 120
-163 130 -4 10 10 13 198 54 178 39 249 65 375 140 50 29 104 58 120 64 81 32
176 34 265 5z m-65 -236 c-33 -18 -118 -72 -188 -120 -114 -79 -141 -104 -192
-180 -9 -12 -28 -8 -137 27 -70 22 -129 44 -133 47 -9 9 140 103 226 143 146
67 320 113 434 115 l50 1 -60 -33z m-2418 -54 c99 -54 183 -115 183 -133 0 -4
-47 -10 -104 -12 -57 -1 -108 -6 -112 -10 -12 -12 17 -68 63 -122 l44 -51 -78
-18 c-43 -10 -108 -32 -146 -49 l-68 -31 -28 27 c-79 76 -79 238 0 352 31 45
103 104 128 104 8 0 61 -26 118 -57z m2843 -147 c-8 -8 -66 -50 -127 -94 -98
-70 -119 -81 -165 -86 -69 -7 -118 -5 -118 5 0 37 322 187 405 189 17 0 17 -2
5 -14z m-2465 -305 c12 -7 31 -28 43 -47 l22 -34 -27 -1 c-16 -1 -73 -2 -128
-3 -122 -3 -169 -19 -310 -111 -83 -54 -107 -65 -142 -65 -23 0 -45 5 -49 12
-12 19 -7 94 10 125 29 57 108 114 183 132 60 15 374 9 398 -8z m2910 -22 c22
-6 92 -33 156 -59 63 -27 145 -55 182 -62 61 -11 67 -15 67 -37 0 -20 -45
-197 -106 -416 -25 -90 8 -27 111 213 53 125 103 234 111 242 48 50 160 -170
171 -336 8 -119 0 -150 -41 -164 -44 -14 -70 -43 -62 -68 10 -30 67 -52 155
-59 57 -4 82 -10 86 -20 3 -9 -11 -51 -31 -94 -46 -104 -44 -127 18 -157 28
-13 53 -34 62 -50 65 -129 74 -527 15 -717 -20 -67 -177 -354 -242 -445 -23
-32 -51 -64 -62 -72 -15 -10 -104 -14 -390 -18 l-370 -5 -3 -572 c-1 -315 -6
-573 -10 -573 -4 0 -30 16 -57 36 -60 44 -112 67 -185 84 -30 6 -102 34 -159
61 -73 34 -127 53 -175 60 -62 8 -152 43 -180 69 -5 5 7 11 25 14 121 17 164
28 211 51 88 44 111 74 122 160 6 49 6 50 -11 27 -56 -75 -88 -103 -141 -124
-53 -21 -72 -23 -267 -23 l-210 0 -72 -37 c-187 -97 -383 -119 -502 -58 -90
45 -168 179 -213 360 -22 91 -15 309 16 505 64 405 75 538 57 694 -26 216 -93
355 -223 456 -38 30 -47 43 -52 78 -4 23 -15 53 -25 67 -16 20 -22 22 -34 11
-13 -10 -26 -6 -76 29 -60 40 -77 38 -45 -8 21 -30 10 -28 -78 17 -111 57
-185 110 -253 182 -75 79 -116 144 -150 233 -23 62 -25 76 -18 148 l8 80 110
40 c61 22 126 44 145 50 45 13 114 3 159 -23 20 -12 51 -27 70 -33 l34 -12
-143 -119 c-78 -66 -138 -121 -133 -122 5 -2 96 44 203 102 165 89 200 105
230 102 19 -3 74 -10 121 -17 61 -9 109 -11 165 -4 43 5 88 8 100 6 15 -2 37
-38 89 -143 39 -77 71 -135 73 -129 3 8 -17 167 -33 266 l-5 32 78 21 c43 11
83 21 89 21 7 0 17 -25 24 -55 10 -47 9 -69 -11 -177 -30 -165 -47 -204 -102
-227 -24 -10 -65 -22 -91 -26 -68 -9 -92 9 -107 80 -10 47 -14 54 -26 44 -20
-16 -18 -96 4 -139 17 -34 44 -49 116 -65 27 -6 28 -7 11 -25 -10 -11 -46 -29
-81 -40 -35 -12 -66 -25 -69 -30 -11 -17 33 -29 127 -36 146 -10 220 22 288
128 92 142 136 326 128 540 -3 70 -4 128 -3 128 2 0 61 -73 133 -162 166 -209
254 -303 356 -383 135 -105 179 -117 179 -47 0 46 -53 138 -219 377 -86 124
-154 228 -152 231 3 2 40 -5 83 -16 89 -23 165 -25 316 -9 104 12 107 11 175
-14 216 -82 584 -166 680 -155 27 3 22 8 -80 84 -101 76 -145 104 -320 199
-64 35 -68 39 -51 51 23 17 153 19 210 3z m920 -7 c99 -61 233 -209 312 -344
108 -184 153 -328 159 -503 3 -99 2 -114 -8 -85 -6 19 -27 85 -46 145 -41 132
-114 307 -167 400 -47 85 -87 129 -178 198 -70 54 -187 124 -187 114 0 -3 9
-21 19 -39 28 -48 68 -170 90 -270 11 -49 18 -88 16 -88 -2 0 -15 21 -30 48
-15 26 -63 104 -106 173 -44 70 -79 136 -79 147 0 42 91 106 170 121 3 1 19
-7 35 -17z m173 -479 c71 -239 65 -492 -17 -685 -22 -52 -49 -131 -60 -177
-11 -46 -23 -86 -27 -90 -4 -3 -4 35 -2 84 4 66 14 114 37 180 39 112 57 253
45 350 l-9 70 -58 -88 c-32 -48 -67 -92 -78 -97 -10 -6 -19 -9 -19 -6 0 3 25
52 55 109 55 104 65 137 95 315 6 39 15 72 19 72 4 0 13 -17 19 -37z m412 -33
c0 -41 33 -133 69 -192 18 -29 93 -131 167 -227 74 -96 132 -176 129 -179 -2
-3 -27 7 -55 21 l-50 26 0 -40 c0 -29 18 -75 66 -171 36 -73 74 -144 85 -159
26 -37 24 -42 -10 -25 -42 22 -94 87 -140 175 -35 66 -40 72 -41 45 0 -60 43
-201 100 -324 32 -69 65 -148 74 -175 26 -81 46 -187 38 -202 -8 -14 -205 377
-241 478 -31 89 -52 205 -60 332 -4 69 -12 122 -19 129 -9 9 -22 3 -55 -30
l-43 -42 0 103 c1 89 -3 112 -29 182 -27 71 -30 93 -30 190 0 61 4 119 8 130
8 20 9 20 23 1 8 -11 14 -32 14 -46z m-4450 -89 c21 -95 10 -123 -105 -279
-57 -77 -108 -143 -113 -146 -5 -3 -17 5 -26 19 -20 30 -35 31 -161 5 -156
-32 -153 -23 11 33 129 45 156 59 217 115 70 67 127 191 127 281 0 20 3 47 7
61 l7 25 12 -30 c7 -17 18 -54 24 -84z m4852 -124 c80 -117 155 -232 169 -256
l24 -44 5 59 5 59 41 -60 c25 -37 77 -90 137 -138 140 -114 289 -274 327 -351
27 -54 31 -71 28 -131 l-3 -68 -40 59 c-105 153 -353 434 -384 434 -27 0 5
-210 55 -360 36 -108 112 -262 178 -359 31 -46 54 -87 50 -90 -3 -3 -30 7 -59
23 -60 31 -114 85 -143 143 -26 51 -85 243 -115 373 l-23 105 -33 -140 c-31
-130 -103 -317 -117 -302 -3 3 7 50 22 104 32 116 36 247 10 358 -38 162 -131
412 -248 668 -32 70 -58 130 -58 132 0 25 52 -41 172 -218z m-4981 133 c15
-24 0 -100 -33 -163 -65 -121 -151 -169 -403 -222 -160 -34 -215 -53 -215 -75
0 -19 31 -38 81 -50 79 -19 170 -8 278 34 52 20 96 34 98 32 3 -2 -3 -16 -13
-31 -19 -29 -77 -64 -306 -185 -163 -85 -190 -109 -152 -137 24 -17 177 -17
235 0 139 43 247 130 390 317 94 124 172 204 192 197 7 -2 16 -16 21 -30 11
-31 -2 -62 -64 -146 -42 -58 -52 -107 -24 -118 8 -3 38 5 65 17 27 13 52 21
55 17 3 -3 -9 -55 -26 -115 l-32 -109 -88 -69 c-48 -38 -102 -88 -120 -111
-37 -49 -79 -146 -80 -184 0 -34 32 -63 62 -56 26 7 239 186 278 234 14 17 33
45 42 62 23 43 61 43 88 -1 26 -43 44 -152 38 -235 -4 -53 -15 -91 -46 -159
-54 -119 -59 -147 -33 -173 37 -37 133 -19 165 31 39 60 78 350 69 513 -7 119
32 139 88 44 16 -28 32 -44 45 -44 22 0 22 13 9 201 -5 66 -4 117 1 127 9 15
13 15 49 -4 65 -33 88 -65 82 -113 -3 -23 -9 -52 -13 -65 -6 -22 -5 -23 19
-18 14 4 32 10 41 13 15 6 16 -2 10 -72 -6 -72 -3 -93 35 -235 22 -86 41 -159
41 -162 0 -4 -22 -18 -49 -32 -27 -13 -59 -38 -71 -55 -12 -17 -44 -44 -72
-59 l-50 -29 20 -20 c11 -11 34 -23 50 -27 l30 -6 -39 -118 -40 -118 -61 -7
c-80 -8 -1855 -8 -2115 1 l-203 6 0 858 c0 676 3 858 13 862 6 3 380 5 830 4
714 -2 819 -4 828 -17z m333 -189 c42 -42 53 -58 38 -54 -43 11 -18 -30 69
-118 57 -56 87 -121 103 -219 6 -31 4 -30 -14 14 -25 60 -46 90 -125 182 -184
217 -205 245 -205 287 l0 29 38 -30 c20 -17 64 -58 96 -91z m-28 -151 c53 -80
56 -260 5 -375 -22 -49 -159 -208 -175 -202 -6 3 -50 -34 -98 -81 -49 -48 -88
-80 -88 -72 0 37 104 165 174 215 81 57 100 79 132 150 23 50 28 77 32 168 l5
108 -37 -17 c-19 -10 -38 -15 -42 -12 -7 8 46 158 57 158 5 0 21 -18 35 -40z
m148 -249 c60 -389 56 -496 -20 -657 -31 -66 -42 -64 -21 3 29 88 40 209 34
357 -4 78 -9 160 -13 184 l-7 43 -24 -40 c-13 -23 -25 -41 -27 -41 -2 0 1 21
5 48 4 26 8 97 9 157 l1 110 23 -26 c18 -21 27 -51 40 -138z m4096 -46 c13
-70 31 -123 60 -178 22 -43 40 -81 40 -83 0 -2 -18 5 -39 16 -49 24 -78 65
-102 138 -18 56 -18 57 -18 19 -1 -69 -23 -181 -43 -225 -34 -71 -42 -64 -33
29 5 46 9 138 10 204 l0 121 45 69 45 69 8 -39 c4 -22 16 -85 27 -140z m-332
-152 c-1 -130 14 -191 60 -252 35 -47 51 -97 51 -161 l0 -55 -33 39 c-32 38
-33 38 -39 15 -4 -13 -7 -42 -7 -64 0 -59 -36 -178 -81 -273 -22 -46 -42 -82
-44 -80 -2 2 5 53 15 113 21 118 26 220 11 211 -5 -4 -31 -43 -57 -89 -62
-110 -136 -200 -220 -269 -88 -73 -154 -122 -154 -113 0 4 37 46 83 93 131
137 210 251 266 382 40 93 51 150 51 270 0 130 14 194 61 287 18 35 33 63 35
63 1 0 2 -53 2 -117z m-3261 -53 c-6 -25 19 -27 44 -4 16 14 18 14 24 -5 3
-12 13 -21 20 -21 21 0 24 -9 46 -155 24 -160 18 -202 -36 -255 l-33 -32 -15
29 c-30 57 -107 299 -115 362 -8 57 -7 65 11 82 28 26 61 26 54 -1z m3808
-526 c-52 -105 -78 -168 -86 -214 -17 -97 -20 -100 -40 -41 -23 65 -24 67 -44
51 -9 -7 -17 -11 -20 -8 -7 7 100 219 134 266 28 38 119 108 128 98 2 -1 -30
-70 -72 -152z m540 -59 c8 -59 13 -110 11 -112 -11 -12 -56 88 -56 124 0 38
18 108 26 100 2 -2 10 -52 19 -112z m-725 81 c0 -29 -26 -150 -41 -187 -5 -14
-30 -42 -54 -62 -24 -20 -58 -57 -76 -82 l-32 -45 -94 0 c-56 0 -93 4 -93 10
0 6 24 61 54 123 85 177 139 231 249 253 87 17 87 17 87 -10z m-3636 -51 c4
-35 2 -64 -5 -77 -7 -13 -9 -46 -4 -92 5 -60 3 -81 -15 -129 -12 -31 -25 -59
-29 -61 -4 -3 -5 45 -3 105 3 65 1 114 -5 120 -13 13 -45 -74 -73 -196 -22
-95 -57 -176 -77 -183 -20 -6 -16 22 12 91 14 34 37 108 50 165 14 57 36 131
49 165 13 34 27 75 31 92 8 38 23 55 45 55 14 0 19 -12 24 -55z m3982 20 c14
-21 16 -40 10 -98 -8 -95 -37 -230 -50 -239 -13 -9 -88 -10 -110 -2 -45 17 6
337 56 357 36 15 78 6 94 -18z m279 -125 c31 -58 71 -120 88 -137 32 -34 80
-50 116 -38 28 8 28 56 1 150 -25 86 -21 110 21 119 65 13 119 -19 140 -82 12
-38 6 -139 -12 -190 -10 -28 -15 -31 -73 -37 -67 -7 -371 -3 -379 5 -2 3 5 76
16 162 11 87 21 157 22 155 1 -1 28 -49 60 -107z m-4271 -372 c-31 -115 -34
-169 -19 -267 9 -52 14 -96 11 -98 -8 -9 -47 88 -58 146 -6 34 -15 61 -19 61
-20 0 -31 -47 -27 -119 3 -64 11 -92 50 -181 25 -58 49 -115 53 -127 7 -27 -4
-95 -15 -88 -5 3 -21 42 -36 88 -15 45 -45 122 -67 171 -48 109 -57 182 -33
276 23 89 43 119 106 157 30 18 58 33 62 33 3 0 0 -24 -8 -52z m-384 -121 c-4
-5 -26 -3 -49 3 -44 12 -71 47 -71 94 0 21 5 25 33 28 30 3 34 -1 64 -57 17
-33 28 -64 23 -68z m4414 37 c-52 -157 -144 -306 -241 -394 -103 -92 -122 -89
-47 6 l45 59 -42 5 -41 5 71 49 c88 59 136 114 209 233 31 50 58 90 60 89 1
-2 -5 -25 -14 -52z m-4299 -106 c-3 -46 -10 -180 -16 -298 -5 -118 -12 -217
-15 -219 -2 -2 -7 -1 -11 3 -9 9 -16 529 -8 563 4 19 17 27 48 32 4 0 5 -36 2
-81z m360 -389 c9 -26 34 -73 57 -104 22 -31 37 -59 33 -63 -12 -12 -95 41
-117 76 -27 44 -36 162 -17 218 l13 39 8 -60 c4 -32 15 -80 23 -106z m305
-170 c90 -39 167 -46 291 -29 50 6 92 10 95 8 2 -3 -12 -27 -32 -55 -32 -47
-35 -57 -39 -139 -3 -49 0 -96 5 -103 5 -8 55 -38 112 -66 l103 -52 6 -69 c3
-38 12 -86 19 -107 15 -41 13 -55 -34 -182 -25 -69 -25 -72 -21 -308 4 -208 7
-243 24 -282 l19 -43 -34 -40 c-19 -22 -34 -45 -34 -52 0 -6 17 -18 37 -27 32
-13 48 -13 108 -4 l70 12 22 -28 c26 -32 53 -105 53 -140 0 -15 -15 -38 -42
-62 -40 -38 -41 -40 -34 -87 7 -58 28 -89 84 -127 39 -26 43 -34 82 -160 54
-171 62 -184 115 -207 24 -10 48 -28 54 -39 6 -11 11 -54 11 -95 0 -98 17
-120 91 -114 32 2 49 -1 49 -8 0 -6 -32 -41 -70 -78 l-71 -66 11 -39 c15 -56
41 -74 105 -75 30 -1 58 -5 64 -11 5 -5 19 -68 30 -140 27 -164 43 -221 76
-265 32 -43 123 -104 186 -125 l47 -16 7 -82 c9 -112 2 -763 -8 -774 -5 -4
-389 -8 -853 -8 -740 0 -846 2 -854 15 -12 17 -6 4207 5 4282 l7 47 31 -13
c18 -8 66 -29 107 -47z m864 -127 c90 -86 114 -103 197 -141 l94 -42 -57 4
c-42 3 -71 12 -117 40 -79 47 -82 26 -6 -49 57 -55 54 -67 -8 -40 -18 7 -41
26 -51 42 -10 16 -53 63 -97 105 -84 80 -104 116 -45 80 50 -31 64 -26 29 12
-40 41 -64 87 -47 87 4 0 52 -44 108 -98z m-288 -150 c23 -20 52 -45 65 -54
l24 -17 -36 -1 c-45 0 -80 26 -115 86 -26 43 -60 72 -72 60 -3 -4 0 -22 7 -42
15 -43 13 -48 -15 -25 -55 44 -62 83 -26 139 14 21 16 22 33 6 11 -10 20 -15
22 -13 2 2 16 22 32 44 l30 40 5 -93 5 -94 41 -36z m-955 -23 c-11 -150 -21
-180 -72 -223 -37 -32 -46 -28 -26 11 38 73 58 161 64 273 4 82 10 122 22 140
l16 25 3 -44 c2 -24 -1 -106 -7 -182z m1594 43 c50 -26 26 -28 -47 -3 -58 20
-112 52 -163 95 -24 21 -9 16 70 -22 55 -27 118 -58 140 -70z m-454 1 c34 -74
37 -93 8 -67 -19 17 -89 150 -89 169 0 23 56 -48 81 -102z m712 -216 c43 -28
60 -62 60 -120 -1 -71 -17 -127 -56 -183 -34 -49 -86 -84 -124 -84 -13 0 -37
13 -55 29 -43 38 -43 81 -1 147 18 27 30 50 28 53 -2 2 -53 -2 -112 -9 -59 -7
-142 -10 -183 -7 -237 17 -337 29 -370 45 -31 15 -35 22 -38 59 -6 77 -12 75
229 75 118 -1 248 3 289 8 41 4 127 7 190 7 92 -2 121 -6 143 -20z m-708 -201
l60 -12 -3 -75 c-5 -88 -21 -130 -22 -54 -1 92 -18 116 -54 77 -14 -16 -15
-27 -6 -72 13 -66 13 -201 1 -233 -6 -14 -15 -61 -21 -105 -10 -73 -9 -86 10
-136 11 -31 29 -81 41 -112 11 -31 19 -71 17 -88 -3 -28 -9 -19 -59 79 -31 61
-59 122 -62 136 -4 15 0 80 9 145 26 209 27 222 14 269 -21 76 -62 50 -101
-65 -13 -38 -27 -66 -32 -63 -17 10 0 122 27 176 25 50 101 147 114 147 4 -1
34 -7 67 -14z m256 -306 c5 -20 15 -44 23 -55 20 -28 35 -10 45 51 5 28 11 43
14 34 3 -8 17 -45 31 -82 29 -79 45 -106 106 -178 87 -102 97 -149 64 -277
-20 -81 -17 -102 34 -243 l31 -85 -41 45 c-63 70 -87 130 -93 241 -10 173 -16
215 -36 249 -20 32 -21 33 -40 14 -38 -38 -52 -217 -24 -311 8 -28 31 -74 50
-102 20 -28 30 -51 24 -51 -16 0 -158 140 -175 172 -23 44 -16 110 20 217 19
54 40 109 46 121 11 21 6 28 -63 94 -96 91 -105 130 -65 271 l11 40 15 -65 c7
-36 18 -81 23 -100z m506 -522 c88 -90 168 -176 176 -193 18 -39 30 -85 20
-84 -5 0 -39 38 -77 84 -97 117 -236 254 -236 232 0 -35 30 -75 104 -142 81
-72 107 -107 131 -175 14 -41 7 -35 -122 99 -76 79 -144 154 -151 167 -15 28
-29 174 -16 174 5 0 82 -73 171 -162z m-451 -203 c37 -31 76 -62 86 -69 10 -6
54 -58 97 -116 43 -58 126 -158 185 -223 59 -65 111 -129 116 -143 13 -33 13
-97 0 -92 -32 11 -182 178 -249 277 -42 63 -79 120 -83 125 -18 27 -18 -11 2
-104 20 -93 20 -104 6 -118 -18 -19 -16 -24 -45 105 -26 119 -59 182 -132 255
-33 32 -70 76 -84 98 -23 36 -65 146 -65 170 0 6 22 -16 49 -48 28 -33 80 -86
117 -117z m-101 -180 c9 -27 20 -108 25 -180 4 -71 12 -139 16 -150 6 -17 4
-17 -20 5 -46 41 -51 59 -51 170 -1 58 -4 139 -9 180 -7 70 -6 73 8 50 9 -14
23 -47 31 -75z m450 -680 c50 -102 84 -199 73 -211 -3 -2 -31 29 -64 71 -54
69 -59 73 -67 52 -5 -12 -7 -99 -5 -193 l3 -170 62 -127 c34 -70 59 -127 54
-127 -12 0 -101 128 -133 190 -41 82 -51 146 -46 311 l4 146 -37 -41 c-21 -22
-40 -38 -43 -35 -4 3 1 26 10 50 9 25 19 102 24 179 5 74 14 160 21 190 l12
55 39 -115 c21 -63 63 -164 93 -225z"/>
<path d="M3850 8304 c0 -5 194 -131 310 -201 134 -80 166 -87 377 -73 137 9
189 17 225 32 71 30 79 45 26 52 -191 26 -344 50 -431 67 -106 21 -377 88
-459 113 -27 8 -48 13 -48 10z"/>
<path d="M6010 7114 c-19 -2 -78 -9 -130 -14 -52 -6 -137 -20 -189 -30 -117
-25 -111 -25 -111 5 0 14 -2 25 -5 25 -3 0 -51 -21 -106 -46 -56 -25 -105 -42
-109 -38 -5 5 -10 22 -12 37 l-3 28 -34 -25 c-43 -32 -49 -32 -63 -1 -6 14
-17 25 -24 25 -18 0 -113 -88 -129 -121 -22 -41 -18 -90 10 -151 35 -76 33
-143 -15 -356 -61 -275 -113 -612 -97 -628 3 -3 17 32 32 78 56 173 135 287
233 335 52 26 68 28 187 31 72 1 141 5 154 8 24 5 23 6 -14 36 -21 18 -64 65
-96 105 -94 119 -110 211 -55 327 61 129 177 183 436 201 197 14 639 -41 1039
-131 85 -19 161 -34 168 -34 25 0 4 18 -92 77 l-94 58 26 14 c32 16 24 22 -67
47 -36 9 -67 19 -69 21 -3 2 5 10 17 19 12 8 22 19 22 25 0 5 -46 9 -105 9
-96 0 -105 2 -105 19 0 16 -14 20 -102 30 -106 13 -435 22 -498 15z"/>
<path d="M5677 6713 c-26 -25 18 -117 78 -161 43 -33 44 -34 28 -58 -18 -28
-17 -29 32 -8 20 8 39 14 41 12 1 -2 -2 -23 -8 -46 -6 -24 -8 -45 -5 -48 3 -4
26 11 51 31 52 43 65 34 47 -32 -6 -21 -11 -44 -11 -51 0 -24 38 11 65 60 19
36 32 48 49 48 12 0 25 -3 29 -6 8 -8 -13 -66 -33 -89 -29 -34 -33 -45 -13
-38 36 12 81 53 98 89 l18 37 13 -24 c7 -13 14 -44 14 -69 l1 -45 23 29 c13
15 29 45 35 66 12 42 11 41 132 60 111 17 312 91 364 135 19 16 19 16 -10 12
-16 -3 -84 -17 -150 -31 -246 -56 -415 -68 -571 -41 -116 20 -201 61 -263 124
-26 28 -51 48 -54 44z"/>
<path d="M5410 5649 c-75 -113 -110 -180 -110 -214 0 -14 2 -25 5 -25 3 0 29
15 58 34 133 87 266 65 404 -66 l65 -63 -7 35 c-28 137 -143 220 -302 220 -44
0 -63 4 -63 13 0 6 5 43 10 81 6 38 8 71 6 73 -2 2 -32 -37 -66 -88z"/>
</g>
</svg>
